<?xml version="1.0"?>
<svg xmlns="http://www.w3.org/2000/svg" id="Filled_cutting_stroke_ex" data-name="Filled cutting stroke ex" width="512" height="512" viewBox="0 0 512 512"><g><path d="M24,468V331.472a40,40,0,0,1,25.6408-37.3339L128,264h80l78.3592,30.1381A40,40,0,0,1,312,331.472V488H44A20,20,0,0,1,24,468Z" style="fill:#c85aed"/><g><path d="M197.1194,296H138.8806a20,20,0,0,1-19.1565-25.747L136,216h64l16.2759,54.253A20,20,0,0,1,197.1194,296Z" style="fill:#ffd4cf"/><path d="M200,216H136l-4.6665,15.5552L151.8418,241.81a36.185,36.185,0,0,0,16.1,3.8008h0a36.1735,36.1735,0,0,0,16.2637-3.8829l20.4113-10.3359Z" style="fill:#fbb8b0"/><path d="M232,88H104v93.459a30,30,0,0,0,16.5836,26.8328l38.4151,19.2076a20,20,0,0,0,17.98-.0458L215.5529,207.92A30,30,0,0,0,232,181.1559Z" style="fill:#ffd4cf"/></g><path d="M80,68V24h92a20,20,0,0,1,20,20V88H100A20,20,0,0,1,80,68Z" style="fill:#fa5d3f"/><path d="M240,88H192V40l34.3246,11.4415A20,20,0,0,1,240,70.4152Z" style="fill:#d3463d"/><path d="M112,24h28a20,20,0,0,1,20,20V88a0,0,0,0,1,0,0H132a20,20,0,0,1-20-20V24A0,0,0,0,1,112,24Z" style="fill:#fed672"/><path d="M232,120h14a10,10,0,0,1,10,10v20a10,10,0,0,1-10,10H232a0,0,0,0,1,0,0V120A0,0,0,0,1,232,120Z" style="fill:#ffd4cf"/><path d="M80,120H94a10,10,0,0,1,10,10v20a10,10,0,0,1-10,10H80a0,0,0,0,1,0,0V120A0,0,0,0,1,80,120Z" transform="translate(184 280) rotate(-180)" style="fill:#ffd4cf"/><g><rect x="128" y="128" width="16" height="16"/><rect x="192" y="128" width="16" height="16"/></g><path d="M168,198c-13.458,0-24-8.7852-24-20h16c0,1.41,3.0371,4,8,4s8-2.59,8-4h16C192,189.2148,181.458,198,168,198Z"/><path d="M192,432H152v56h96A56,56,0,0,0,192,432Z" style="fill:#ffd4cf"/><g><path d="M488,376H456L440,264h0a48,48,0,0,1,48,48Z" style="fill:#d3463d"/><path d="M438,336H352l-16.7-44.5337A30,30,0,0,0,307.21,272H276.3606a20,20,0,0,0-17.8884,11.0557L232,328l-32,16v18a30,30,0,0,0,30,30h54.21l-10.1052,48H246a30,30,0,0,0-30,30v18H438a50,50,0,0,0,50-50V386A50,50,0,0,0,438,336Z" style="fill:#fa5d3f"/><path d="M232,328v20a20,20,0,0,1-20,20H200V344Z" style="fill:#fed672"/><path d="M320,272v52a20,20,0,0,1-20,20h0a20,20,0,0,1-20-20V272" style="fill:#fed672"/><g><path d="M192,424H88V376H72v56a8,8,0,0,0,8,8h64v40H44a12.0134,12.0134,0,0,1-12-12V331.4717a32.1911,32.1911,0,0,1,20.5122-29.8672L111.0247,279.1A28.0722,28.0722,0,0,0,138.88,304H197.12a28.0722,28.0722,0,0,0,27.8557-24.9l12.1531,4.6741,5.7432-14.9336L221.77,260.7251l-12.2371-40.79,9.6338-4.8785A37.8185,37.8185,0,0,0,240,181.1562V168h6a18.0206,18.0206,0,0,0,18-18V130a18.0206,18.0206,0,0,0-18-18h-6V96a8,8,0,0,0,8-8V70.415a27.9661,27.9661,0,0,0-19.1455-26.5634L197.9813,33.5605A28.0446,28.0446,0,0,0,172,16H80a8,8,0,0,0-8,8V48H88V32h16V68a27.8317,27.8317,0,0,0,2.7042,12H100A12.0134,12.0134,0,0,1,88,68V64H72v4A28.0431,28.0431,0,0,0,96,95.7148V112H90a18.0206,18.0206,0,0,0-18,18v20a18.0206,18.0206,0,0,0,18,18h6v13.459a37.7925,37.7925,0,0,0,21.0059,33.9883l9.3979,4.6989L114.23,260.7251,46.7686,286.6709A48.2876,48.2876,0,0,0,16,331.4717V468a28.0314,28.0314,0,0,0,28,28H192V480H160V440h32a48.0674,48.0674,0,0,1,13.7183,1.9873l4.5634-15.3359A64.0739,64.0739,0,0,0,192,424Zm54-296a2.0023,2.0023,0,0,1,2,2v20a2.0023,2.0023,0,0,1-2,2h-6V128ZM232,70.415V80H200V51.1L223.7944,59.03A11.9863,11.9863,0,0,1,232,70.415ZM184,44V80H168V44a27.8317,27.8317,0,0,0-2.7042-12H172A12.0134,12.0134,0,0,1,184,44ZM120,68V32h20a12.0134,12.0134,0,0,1,12,12V80H132A12.0134,12.0134,0,0,1,120,68ZM90,152a2.0023,2.0023,0,0,1-2-2V130a2.0023,2.0023,0,0,1,2-2h6v24Zm22,29.459V96H224v85.1562a21.8959,21.8959,0,0,1-12.0615,19.627l-38.5747,19.5332a12.0548,12.0548,0,0,1-10.7876.0274l-38.4151-19.2071A21.8816,21.8816,0,0,1,112,181.459Zm43.42,53.1953a28.1153,28.1153,0,0,0,25.1724-.0645l14.4389-7.3115,13.5821,45.2735A12,12,0,0,1,197.12,288H138.88a12,12,0,0,1-11.4937-15.4482l13.5427-45.1426Z"/><path d="M496,312a56.0632,56.0632,0,0,0-56-56,8.0005,8.0005,0,0,0-7.9194,9.1318l8.9926,62.9488q-1.5267-.08-3.0732-.0806H376v16h62a42.0475,42.0475,0,0,1,42,42v52a42.0475,42.0475,0,0,1-42,42H344V470a22.0248,22.0248,0,0,1,22-22h26a8,8,0,0,0,8-8V430a22.0248,22.0248,0,0,1,22-22h26V392H422a38.0433,38.0433,0,0,0-38,38v2H366a38.0433,38.0433,0,0,0-38,38v10H224V470a22.0248,22.0248,0,0,1,22-22h66V432H283.9653l6.7367-32h.7135a48.0929,48.0929,0,0,0,39.0591-20.1006l28.0352-39.25a7.9968,7.9968,0,0,0,.9809-7.458l-16.7-44.5342A38.1761,38.1761,0,0,0,307.21,264H276.3608a27.8449,27.8449,0,0,0-24.91,15.2129l-25.1436,42.6894-29.8847,14.9424A8,8,0,0,0,192,344v18a38.0433,38.0433,0,0,0,38,38h44.3507l-6.7367,32H246a38.0433,38.0433,0,0,0-38,38v18a8,8,0,0,0,8,8H438a58.0656,58.0656,0,0,0,58-58V386a58.1408,58.1408,0,0,0-.8629-10H496ZM312,280.5342V324a12,12,0,0,1-24,0V280h19.21A21.75,21.75,0,0,1,312,280.5342Zm-88,60.41V348a12.0134,12.0134,0,0,1-12,12h-4V348.9443Zm-10.9739,35.0369A28.0336,28.0336,0,0,0,240,348V330.1812l25.3652-43.065c.0928-.1582.1807-.3193.2622-.4824A11.9417,11.9417,0,0,1,272,280.8108V324a28,28,0,0,0,56,0V294.7837l15.0127,40.0347L317.4551,370.6a32.0644,32.0644,0,0,1-26.04,13.4H230A21.9658,21.9658,0,0,1,213.0261,375.9812Zm244.6907-44.5305-8.334-58.3394A40.073,40.073,0,0,1,480,312v34.0393A58.1692,58.1692,0,0,0,457.7168,331.4507Z"/></g></g><path d="M348,224l-38.1421-38.1416a20,20,0,1,1,28.2842-28.2852L348,167.4316l9.8579-9.8584a20,20,0,0,1,28.2842,28.2852Z" style="fill:#fed672"/><path d="M348,232a7.9761,7.9761,0,0,1-5.6567-2.3428l-38.1421-38.1416a28,28,0,0,1,39.5976-39.6L348,156.1172l4.2007-4.2a28,28,0,0,1,39.5981,39.5986l-38.1421,38.1416A7.9761,7.9761,0,0,1,348,232Zm-24-72.2842a12,12,0,0,0-8.4854,20.4854L348,212.6865l32.4854-32.4853a12,12,0,0,0-16.9708-16.9707l-9.8574,9.8574a7.9995,7.9995,0,0,1-11.3144,0l-9.8579-9.8584A11.923,11.923,0,0,0,324,159.7158Z"/><path d="M423,108.2124,396.3934,81.606a15,15,0,0,1,21.2129-21.2129L423,65.7866l5.3935-5.3935A15,15,0,0,1,449.6063,81.606Z" style="fill:#fed672"/><path d="M423,116.2129a8,8,0,0,1-5.6567-2.3428L390.7368,87.2627A23,23,0,0,1,423,54.4766a23,23,0,0,1,32.2632,32.7861L428.6567,113.87A8,8,0,0,1,423,116.2129Zm-16-52.21a6.9968,6.9968,0,0,0-4.95,11.9453L423,96.8994l20.95-20.9512A7,7,0,1,0,434.05,66.05l-5.3931,5.3936a7.9995,7.9995,0,0,1-11.3144,0l-5.3936-5.3946A6.9771,6.9771,0,0,0,407,64.0029Z"/></g></svg>
