<svg id="Layer_1" enable-background="new 0 0 507.893 507.893" height="512" viewBox="0 0 507.893 507.893" width="512" xmlns="http://www.w3.org/2000/svg"><g><path d="m224.56 277.509c7.052-8.814 5.624-21.675-3.19-28.727l-59.197-47.365-10.316-47.955 17.053 37.898 58.676 46.949 34.278 13.289c10.559 4.095 22.378-1.18 26.444-11.668 4.08-10.524-1.144-22.363-11.668-26.443l-67.528-26.181-23.324-34.713 1.569-8.158c3.157-16.411-7.587-32.273-23.998-35.43l-52.988-10.195c-16.411-3.157-32.273 7.587-35.43 23.998l-27.51 143c-1.208 6.28-1.666 12.682-1.364 19.07l3.998 84.604-47.784 103.052c-5.698 12.288-.355 26.869 11.933 32.566 12.286 5.697 26.869.356 32.567-11.933l50.329-108.543c1.673-3.607 2.443-7.566 2.245-11.538l-4.403-88.333 11.308 2.175 26.926 80.072 10.299 117.982c1.179 13.506 13.086 23.48 26.565 22.3 13.494-1.178 23.478-13.071 22.3-26.565l-10.554-120.896c-.169-1.935-.567-3.843-1.187-5.685l-21.37-63.549 3.954-20.555-39.778-31.827c-1.622-1.824-11.391-6.413-11.469-18.542l-.054-57.606 11.846 55.069c.99 4.602 3.537 8.72 7.212 11.661l64.879 51.911c8.798 7.038 21.663 5.643 28.731-3.189z"/><ellipse cx="154.294" cy="45.313" rx="44.793" ry="44.793" transform="matrix(.099 -.995 .995 .099 93.98 194.384)"/><path d="m504.706 330.048c-2.045-.477-4.104.79-4.825 2.762l-.034.092c-4.148 11.339-11.956 23.534-21.362 31.525-7.167 6.187-16.3 10.749-26.192 12.074-.795-.573-7.299-9.815-21.973-11.986l-73.069-10.81c-.289 3.817-2.494 7.378-6.59 9.274l-54.93 25.423c-.123.057-.25.098-.375.15 1.831 5.19 3.842 10.691 5.937 16.104l-28.74 15.044-1.211.633c-2.05 1.089-3.59 3.084-4.007 5.55l-5.573 32.975c-.517 3.047 1.259 6.139 4.365 7.115 3.247 1.02 6.709-.875 7.921-4.055l9.979-26.194 26.006-10.612.012.024c.726 1.491.759 3.227.089 4.744l-29.301 66.335c-1.595 3.649-.107 8.062 3.623 9.878 3.62 1.763 8.002.201 10.018-3.285l35.588-61.526c.884-1.528 2.439-2.547 4.193-2.748 12.494-1.423 31.259-3.692 50.638-6.133.244.503.497.999.76 1.485 0 0 0 0 .001.001.083.154.168.307.253.46 2.301 4.197 5.003 8.614 8.04 12.554 3.342 4.335 5 9.734 4.473 15.182l-3.518 36.344c-.407 4.369 2.754 8.461 7.343 8.915 4.204.416 7.986-2.608 8.837-6.746l8.018-39.011c.456-2.217 1.731-4.181 3.572-5.499l.028-.02c0-.006 0-.007.001-.013-13.518-11.655-18.836-30.494-15.702-48.337 1.565 8.3 2.185 25.596 24.67 44.291 3.866 3.214 6.43 7.732 7.158 12.706l5.201 35.542c.558 3.843 4.045 6.713 8.087 6.324 3.914-.376 6.78-3.889 6.701-7.82-.239-11.836-.54-26.735-.762-37.715 2.113-2.939 2.923-6.76 1.907-10.506.539-1.141 1.176-2.24 1.933-3.268 7.679-10.435 9.8-25.084 8.667-38.019-.01-.12-.021-.24-.031-.36-.486-5.211-1.779-10.178-4.111-14.869 8.959-4.394 16.95-10.822 23.39-18.827 9.214-11.306 15.825-26.874 18.033-40.499.334-2.06-.955-4.14-3.136-4.648z"/><path d="m262.377 297.181c-5.082-.92-9.725 3.065-9.587 8.228.001.006.002.013.003.02.414 2.935 2.262 5.467 5.078 6.395l19.313 6.365-12.552 12.258c.599.313 1.22.594 1.868.827 11.079 3.981 19.136 13.256 18.674 23.1l50.904-23.561c.36-.167.727-.313 1.098-.439-.074-.345-.147-.688-.219-1.027 3.276-12.788 7.283-33.001 2.593-41.539-1-1.819-3.677-1.779-4.654.053-2.854 5.351-7.873 10.77-11.892 14.63-2.224-1.159-3.879-1.726-3.879-1.726-1.276-.296-17.508-11.83-34.403.511l-.725-.106 27.909-26.485c2.383-2.261 2.719-6.07.529-8.52-2.265-2.535-6.16-2.681-8.607-.358l-34.406 32.65z"/><path d="m249.945 316.937-35.511 33.7c-2.403 2.281-2.503 6.079-.222 8.482 2.281 2.404 6.08 2.502 8.482.222l44.583-41.608z"/><path d="m339.272 337.716-55.18 25.54c-1.695.785-2.434 2.795-1.649 4.491l5.602 12.104c.572 1.236 1.794 1.963 3.072 1.963.476 0 .959-.101 1.419-.314l55.18-25.54c1.695-.785 2.434-2.795 1.649-4.491l-5.602-12.104c-.572-1.235-1.795-1.963-3.072-1.962-.476-.001-.959.1-1.419.313z"/></g></svg>